<svg width="24" height="24" viewBox="0 0 24 24" fill="none" xmlns="http://www.w3.org/2000/svg">
<path d="M14.25 3H9.75V4.8H14.25V3Z" fill="black"/>
<path d="M3 9.75V14.25H4.8L4.8 9.75H3Z" fill="black"/>
<path d="M9.75 19.2H14.25V21H9.75V19.2Z" fill="black"/>
<path d="M19.2 9.75V14.25H21V9.75H19.2Z" fill="black"/>
<path d="M7.95 4.80488V3C6.71543 3.02816 5.94398 3.12402 5.30337 3.45042C4.50557 3.85693 3.85693 4.50557 3.45042 5.30337C3.12402 5.94398 3.02816 6.71543 3 7.95H4.80488C4.81245 7.64187 4.82465 7.37519 4.84432 7.1344C4.89297 6.53894 4.97816 6.27924 5.05803 6.12249C5.29155 5.66418 5.66418 5.29155 6.12249 5.05803C6.27924 4.97816 6.53894 4.89297 7.1344 4.84432C7.37519 4.82465 7.64187 4.81245 7.95 4.80488Z" fill="black"/>
<path d="M16.05 21V19.1951C16.3581 19.1876 16.6248 19.1753 16.8656 19.1557C17.4611 19.107 17.7208 19.0218 17.8775 18.942C18.3358 18.7084 18.7084 18.3358 18.942 17.8775C19.0218 17.7208 19.107 17.4611 19.1557 16.8656C19.1753 16.6248 19.1876 16.3581 19.1951 16.05H21C20.9718 17.2846 20.876 18.056 20.5496 18.6966C20.1431 19.4944 19.4944 20.1431 18.6966 20.5496C18.056 20.876 17.2846 20.9718 16.05 21Z" fill="black"/>
<path d="M7.95 19.1951V21C6.71543 20.9718 5.94398 20.876 5.30337 20.5496C4.50557 20.1431 3.85693 19.4944 3.45042 18.6966C3.12402 18.056 3.02816 17.2846 3 16.05H4.80488C4.81245 16.3581 4.82465 16.6248 4.84432 16.8656C4.89297 17.4611 4.97816 17.7208 5.05803 17.8775C5.29155 18.3358 5.66418 18.7084 6.12249 18.942C6.27924 19.0218 6.53894 19.107 7.1344 19.1557C7.37519 19.1753 7.64187 19.1876 7.95 19.1951Z" fill="black"/>
<path d="M16.05 3V4.80488C16.3581 4.81245 16.6248 4.82465 16.8656 4.84432C17.4611 4.89297 17.7208 4.97816 17.8775 5.05803C18.3358 5.29155 18.7084 5.66418 18.942 6.12249C19.0218 6.27924 19.107 6.53894 19.1557 7.1344C19.1753 7.37519 19.1876 7.64187 19.1951 7.95H21C20.9718 6.71543 20.876 5.94398 20.5496 5.30337C20.1431 4.50557 19.4944 3.85693 18.6966 3.45042C18.056 3.12402 17.2846 3.02816 16.05 3Z" fill="black"/>
</svg>
