<svg width="24" height="24" viewBox="0 0 24 24" fill="none" xmlns="http://www.w3.org/2000/svg">
<path d="M16.7088 20.8242L22 22L20.8242 16.7088C21.5746 15.3056 22 13.7025 22 12C22 6.47715 17.5229 2 12 2C6.4772 2 2 6.47715 2 12C2 17.5228 6.4772 22 12 22C13.7025 22 15.3056 21.5746 16.7088 20.8242ZM16.4193 18.711L15.7657 19.0605C14.6175 19.6745 13.3345 20 12 20C7.5817 20 4 16.4183 4 12C4 7.58172 7.5817 4 12 4C16.4183 4 20 7.58172 20 12C20 13.3345 19.6745 14.6175 19.0605 15.7657L18.711 16.4192L19.3658 19.3658L16.4193 18.711Z" fill="black"/>
</svg>
