<svg width="24" height="24" viewBox="0 0 24 24" fill="none" xmlns="http://www.w3.org/2000/svg">
<path fill-rule="evenodd" clip-rule="evenodd" d="M14.7833 2.71701C15.5376 2.71696 16.274 2.94661 16.8945 3.3754C17.515 3.80419 17.9902 4.41178 18.2569 5.11731C18.5236 5.82285 18.5691 6.59287 18.3874 7.32491C18.2057 8.05695 17.8053 8.71628 17.2396 9.21518C17.9315 9.82398 18.3723 10.6683 18.4763 11.5841C18.5803 12.4998 18.34 13.4215 17.8021 14.1699C17.2643 14.9183 16.4674 15.4399 15.5663 15.6334C14.6652 15.8269 13.7244 15.6784 12.9267 15.2167V17.57C12.9267 18.1904 12.7712 18.801 12.4744 19.3459C12.1776 19.8908 11.749 20.3526 11.2278 20.6892C10.7065 21.0258 10.1092 21.2264 9.49049 21.2726C8.87175 21.3189 8.25127 21.2094 7.68575 20.9542C7.12023 20.6989 6.62769 20.306 6.25313 19.8113C5.87858 19.3166 5.63395 18.736 5.54159 18.1225C5.44924 17.5089 5.51211 16.882 5.72445 16.299C5.93679 15.716 6.29185 15.1955 6.75716 14.785C6.36209 14.4366 6.04569 14.008 5.82898 13.5278C5.61227 13.0477 5.5002 12.5269 5.50023 12.0001C5.5002 11.4733 5.61227 10.9525 5.82898 10.4724C6.04569 9.99221 6.36209 9.56366 6.75716 9.21518C6.19147 8.71628 5.79112 8.05695 5.60939 7.32491C5.42766 6.59287 5.47317 5.82285 5.73986 5.11731C6.00656 4.41178 6.48178 3.80419 7.1023 3.3754C7.72282 2.94661 8.45921 2.71696 9.21347 2.71701H14.7833ZM11.0701 15.7133H9.21347C8.84627 15.7133 8.48731 15.8222 8.18199 16.0262C7.87667 16.2302 7.6387 16.5202 7.49818 16.8595C7.35765 17.1987 7.32089 17.572 7.39252 17.9322C7.46416 18.2923 7.64099 18.6231 7.90064 18.8828C8.16029 19.1424 8.49111 19.3193 8.85126 19.3909C9.21141 19.4625 9.58471 19.4258 9.92397 19.2853C10.2632 19.1447 10.5532 18.9068 10.7572 18.6014C10.9612 18.2961 11.0701 17.9372 11.0701 17.57V15.7133ZM11.0701 10.1435H9.21347C8.72106 10.1435 8.24883 10.3391 7.90064 10.6873C7.55246 11.0355 7.35685 11.5077 7.35685 12.0001C7.35685 12.4925 7.55246 12.9647 7.90064 13.3129C8.24883 13.6611 8.72106 13.8567 9.21347 13.8567H11.0701V10.1435ZM14.7833 10.1435C14.2909 10.1435 13.8187 10.3391 13.4705 10.6873C13.1223 11.0355 12.9267 11.5077 12.9267 12.0001C12.9267 12.4925 13.1223 12.9647 13.4705 13.3129C13.8187 13.6611 14.2909 13.8567 14.7833 13.8567C15.2757 13.8567 15.748 13.6611 16.0962 13.3129C16.4443 12.9647 16.6399 12.4925 16.6399 12.0001C16.6399 11.5077 16.4443 11.0355 16.0962 10.6873C15.748 10.3391 15.2757 10.1435 14.7833 10.1435ZM14.7833 4.57363H12.9267V8.28687H14.7833C15.2651 8.28902 15.7289 8.10382 16.0766 7.77038C16.4244 7.43693 16.6289 6.98137 16.6469 6.49993C16.665 6.01849 16.4952 5.54887 16.1735 5.19029C15.8517 4.83171 15.4032 4.61225 14.9226 4.57827L14.7833 4.57363ZM11.0701 4.57363H9.21347C8.72106 4.57363 8.24883 4.76924 7.90064 5.11742C7.55246 5.4656 7.35685 5.93784 7.35685 6.43025C7.35685 6.92265 7.55246 7.39489 7.90064 7.74308C8.24883 8.09126 8.72106 8.28687 9.21347 8.28687H11.0701V4.57363Z" fill="black"/>
</svg>
