<svg width="100%" height="100%" viewBox="0 0 24 24" fill="none" xmlns="http://www.w3.org/2000/svg">
<path d="M17.8742 16.4599L22.1569 20.7426L20.7427 22.1568L16.46 17.8741C14.9201 19.1061 12.9672 19.8431 10.8432 19.8431C5.87515 19.8431 1.84315 15.8111 1.84315 10.8431C1.84315 5.87515 5.87515 1.84315 10.8432 1.84315C15.8112 1.84315 19.8432 5.87515 19.8432 10.8431C19.8432 12.9671 19.1062 14.92 17.8742 16.4599ZM15.8679 15.7179C17.0907 14.4577 17.8432 12.7387 17.8432 10.8431C17.8432 6.97565 14.7107 3.84315 10.8432 3.84315C6.97565 3.84315 3.84315 6.97565 3.84315 10.8431C3.84315 14.7106 6.97565 17.8431 10.8432 17.8431C12.7388 17.8431 14.4578 17.0906 15.718 15.8678L15.8679 15.7179Z" fill="black"/>
</svg>
