<svg width="24" height="24" viewBox="0 0 24 24" fill="none" xmlns="http://www.w3.org/2000/svg">
<path d="M18.7186 2.34636L17.647 2.41316L17.7305 4.64156C17.7349 4.76479 17.5927 4.83671 17.4959 4.76029L16.7782 4.19455L15.9281 4.83965C15.9062 4.85627 15.88 4.86632 15.8526 4.86862C15.8252 4.87092 15.7977 4.86537 15.7734 4.85262C15.749 4.83987 15.7288 4.82046 15.7151 4.79664C15.7014 4.77283 15.6947 4.74559 15.6959 4.71813L15.7915 2.5291L5.16053 3.19388C4.90764 3.20964 4.67093 3.32363 4.50094 3.51152C4.33095 3.69941 4.24114 3.94631 4.25069 4.19951L4.84898 20.1392C4.85812 20.3827 4.95851 20.6139 5.13022 20.7869C5.30193 20.9598 5.5324 21.0618 5.77587 21.0727L18.7355 21.6546C18.8665 21.6604 18.9974 21.6396 19.1201 21.5936C19.2429 21.5475 19.3551 21.477 19.4499 21.3864C19.5447 21.2958 19.6201 21.1869 19.6717 21.0664C19.7233 20.9458 19.7499 20.816 19.75 20.6849V3.3154C19.7501 3.18278 19.7229 3.05155 19.6703 2.92983C19.6176 2.8081 19.5406 2.69846 19.4439 2.60768C19.3473 2.51688 19.2331 2.44685 19.1083 2.40191C18.9836 2.35696 18.851 2.33805 18.7186 2.34636ZM12.2924 5.63029C14.8201 5.63029 16.2006 6.98234 16.2006 9.55468C15.8589 9.82019 13.3145 10.0011 13.3145 9.62335C13.3681 8.18187 12.7229 8.11878 12.3644 8.11878C12.0237 8.11878 11.45 8.22139 11.45 8.99359C11.45 10.8982 16.3619 10.7954 16.3619 14.6392C16.3619 16.8014 14.605 17.9957 12.3644 17.9957C10.0518 17.9957 8.03109 17.0601 8.25924 13.8165C8.34883 13.4357 11.2887 13.5262 11.2887 13.8165C11.253 15.1549 11.5576 15.5486 12.3282 15.5486C12.9199 15.5486 13.1889 15.2226 13.1889 14.6735C13.1889 12.7173 8.34883 12.6487 8.34883 9.06241C8.34883 7.00326 9.76505 5.63029 12.2924 5.63029Z" fill="black"/>
</svg>
