<svg width="70" height="18" viewBox="0 0 70 18" fill="none" xmlns="http://www.w3.org/2000/svg">
<g id="logo">
<path id="Vector" d="M57.1619 9.53902H68.1527V11.8201H56.3946C55.6273 11.8201 55.3163 11.6957 54.7149 11.0736L54.3209 10.6588C53.7817 10.0575 53.6365 9.74639 53.6365 8.85469V1.24409C53.6365 0.725655 53.8854 0.476807 54.3831 0.476807H67.9868V2.75791H56.3117V5.01828H67.4476V7.23718H56.3117V8.64732C56.3117 8.79248 56.3531 8.89616 56.4361 8.99985L56.8094 9.37312C56.8716 9.47681 56.9752 9.53902 57.1619 9.53902ZM52.8693 14.5989H68.8992V16.9215H52.8693V14.5989Z" fill="#121110"/>
<path id="Vector_2" d="M50.3773 7.9837V10.327H44.6331V14.9514H51.2483V17.274H35.3013V14.9514H41.958V10.327H39.3036C38.5363 10.327 38.1838 10.2026 37.6238 9.58048L36.7114 8.56435C36.193 7.96297 36.0478 7.69338 36.0478 6.78094V0.539001H38.7229V6.44914C38.7229 6.69799 38.7437 6.84315 38.951 7.05052L39.6354 7.75559C39.7598 7.90075 39.8635 7.9837 40.0916 7.9837H50.3773Z" fill="#121110"/>
<path id="Vector_3" d="M18.2519 8.33633H20.9685V2.73725H18.2519V0.456146H33.0376V2.73725H30.3625V8.33633H33.0376V10.6589H27.0031V14.9515H33.6183V17.2741H17.6713V14.9515H24.3279V10.6589H18.2519V8.33633ZM23.6229 2.73725V8.33633H27.6874V2.73725H23.6229Z" fill="#121110"/>
<path id="Vector_4" d="M2.90323 10.6382H14.4332C15.0346 10.6382 15.4078 11.0115 15.4078 11.6129V17.0046C15.4078 17.6267 15.0346 18 14.4332 18H2.90323C2.28111 18 1.90783 17.6267 1.90783 17.0046V11.6129C1.90783 11.0115 2.28111 10.6382 2.90323 10.6382ZM0.974654 10.576L0 8.62673C2.63364 7.54839 4.23041 6.82258 5.32949 6.15899C5.84793 5.84793 6.17972 5.57834 6.40783 5.35023C5.82719 5.70277 4.93548 5.95161 4.08525 5.95161H0.248848V3.87788H5.64055C6.24193 3.87788 6.61521 3.81567 6.86405 3.69124V2.34332H0.518433V0.228111H8.81336C9.31106 0.228111 9.55991 0.497696 9.55991 1.01613V3.56682H12.7949V0H15.4078V9.62212H12.7949V5.86866H9.14516C8.77189 6.59447 8.08756 7.21659 6.86405 7.92166C5.43318 8.73041 3.60829 9.55991 0.974654 10.576ZM4.52074 15.6982H12.8157V12.9194H4.52074V15.6982Z" fill="#121110"/>
</g>
</svg>
