<svg width="54" height="15" viewBox="0 0 54 15" fill="none" xmlns="http://www.w3.org/2000/svg">
<g id="logo">
<path id="Vector" d="M44.4593 7.91924H53.0077V9.69343H43.8625C43.2658 9.69343 43.0238 9.59666 42.5561 9.11278L42.2496 8.7902C41.8303 8.32246 41.7174 8.08053 41.7174 7.38698V1.46762C41.7174 1.0644 41.9109 0.87085 42.298 0.87085H52.8787V2.64504H43.798V4.40311H52.4593V6.12891H43.798V7.22569C43.798 7.33859 43.8303 7.41924 43.8948 7.49988L44.1851 7.7902C44.2335 7.87085 44.3141 7.91924 44.4593 7.91924ZM41.1206 11.8547H53.5883V13.6612H41.1206V11.8547Z" fill="white"/>
<path id="Vector_2" d="M39.1824 6.70951V8.53209H34.7146V12.1289H39.8598V13.9353H27.4565V12.1289H32.634V8.53209H30.5694C29.9727 8.53209 29.6985 8.43532 29.263 7.95145L28.5533 7.16113C28.1501 6.69338 28.0372 6.48371 28.0372 5.77403V0.919189H30.1178V5.51596C30.1178 5.70951 30.134 5.82242 30.2953 5.98371L30.8275 6.53209C30.9243 6.645 31.0049 6.70951 31.1823 6.70951H39.1824Z" fill="white"/>
<path id="Vector_3" d="M14.196 6.98383H16.3089V2.62899H14.196V0.854797H25.696V2.62899H23.6154V6.98383H25.696V8.79028H21.0024V12.129H26.1476V13.9354H13.7444V12.129H18.9218V8.79028H14.196V6.98383ZM18.3734 2.62899V6.98383H21.5347V2.62899H18.3734Z" fill="white"/>
<path id="Vector_4" d="M2.25806 8.77419H11.2258C11.6935 8.77419 11.9839 9.06452 11.9839 9.53226V13.7258C11.9839 14.2097 11.6935 14.5 11.2258 14.5H2.25806C1.77419 14.5 1.48387 14.2097 1.48387 13.7258V9.53226C1.48387 9.06452 1.77419 8.77419 2.25806 8.77419ZM0.758064 8.72581L0 7.20968C2.04839 6.37097 3.29032 5.80645 4.14516 5.29032C4.54839 5.04839 4.80645 4.83871 4.98387 4.66129C4.53226 4.93548 3.83871 5.12903 3.17742 5.12903H0.193548V3.51613H4.3871C4.85484 3.51613 5.14516 3.46774 5.33871 3.37097V2.32258H0.403226V0.67742H6.85484C7.24194 0.67742 7.43548 0.887097 7.43548 1.29032V3.27419H9.95161V0.5H11.9839V7.98387H9.95161V5.06452H7.1129C6.82258 5.62903 6.29032 6.1129 5.33871 6.66129C4.22581 7.29032 2.80645 7.93548 0.758064 8.72581ZM3.51613 12.7097H9.96774V10.5484H3.51613V12.7097Z" fill="white"/>
</g>
</svg>
