<svg width="18" height="18" viewBox="0 0 18 18" fill="none" xmlns="http://www.w3.org/2000/svg">
<g id="symbolContainer" clip-path="url(#clip0_6300_33995)">
<path id="vector" d="M9 0.28125C4.0273 0.28125 0 4.33662 0 9.34398C0 13.3544 2.57635 16.7415 6.15365 17.9417C6.60365 18.0213 6.77191 17.7495 6.77191 17.5115C6.77191 17.2963 6.76096 16.5831 6.76096 15.8234C4.5 16.2427 3.91539 15.2686 3.73539 14.7595C3.63365 14.4987 3.19539 13.6941 2.81191 13.4789C2.4973 13.3087 2.0473 12.8895 2.80096 12.8784C3.51 12.8674 4.01635 13.5357 4.18539 13.8076C4.99539 15.1788 6.28904 14.7926 6.80635 14.5546C6.88461 13.966 7.12096 13.5696 7.38 13.3426C5.3773 13.1164 3.28539 12.3347 3.28539 8.86799C3.28539 7.88291 3.63365 7.06726 4.2073 6.43287C4.1173 6.20591 3.8027 5.27678 4.2973 4.03085C4.2973 4.03085 5.05096 3.79286 6.7727 4.95998C7.4927 4.75587 8.2573 4.65421 9.0227 4.65421C9.7873 4.65421 10.5527 4.75666 11.2727 4.95998C12.9944 3.78183 13.7473 4.03085 13.7473 4.03085C14.2427 5.27678 13.9273 6.20591 13.8373 6.43287C14.411 7.06726 14.76 7.87109 14.76 8.86799C14.76 12.3457 12.6563 13.1156 10.6537 13.3426C10.98 13.6263 11.261 14.1701 11.261 15.0196C11.261 16.2316 11.25 17.2057 11.25 17.5115C11.25 17.7495 11.419 18.0332 11.8683 17.9425C15.4244 16.7415 18 13.3426 18 9.34398C18 4.33662 13.9727 0.28125 9 0.28125Z" fill="#121110"/>
</g>
<defs>
<clipPath id="clip0_6300_33995">
<rect width="18" height="18" fill="white"/>
</clipPath>
</defs>
</svg>
