<svg width="18" height="18" viewBox="0 0 18 18" fill="none" xmlns="http://www.w3.org/2000/svg">
<path d="M9 7.36363V10.8491H13.8436C13.6309 11.97 12.9927 12.9191 12.0354 13.5573L14.9563 15.8237C16.6581 14.2528 17.6399 11.9455 17.6399 9.20463C17.6399 8.56646 17.5827 7.95277 17.4763 7.36373L9 7.36363Z" fill="#4285F4"/>
<path d="M3.95596 10.713L3.29718 11.2173L0.965332 13.0337C2.44623 15.9709 5.48146 18 8.99961 18C11.4295 18 13.4672 17.1982 14.9563 15.8237L12.0354 13.5573C11.2336 14.0973 10.2105 14.4246 8.99961 14.4246C6.65962 14.4246 4.6715 12.8455 3.95964 10.7182L3.95596 10.713Z" fill="#34A853"/>
<path d="M0.965383 4.96634C0.351781 6.1772 0 7.54358 0 8.99991C0 10.4562 0.35173 11.8228 0.965332 13.0337C0.965332 13.0418 3.95997 10.7099 3.95997 10.7099C3.77998 10.1699 3.67358 9.59717 3.67358 8.99982C3.67358 8.40247 3.77998 7.82978 3.95997 7.28978L0.965383 4.96634Z" fill="#FBBC05"/>
<path d="M8.99979 3.58363C10.3253 3.58363 11.5034 4.0418 12.4443 4.92544L15.0216 2.34821C13.4588 0.891872 11.4298 0 8.99979 0C5.48164 0 2.44629 2.02088 0.965383 4.96634L3.95997 7.28978C4.67175 5.16249 6.65981 3.58363 8.99979 3.58363Z" fill="#EA4335"/>
</svg>
